# xmcd
#
# Track frame offsets:
#	150
#	23552
#	42198
#	61260
#	87282
#	105744
#	124316
#	140880
#	175746
#	197610
#	212087
#	230311
#
# Disc length: 3299 seconds
#
# Revision: 1
# Processed by: cddbd v1.4PL0 Copyright (c) Steve Scherf et al.
# Submitted via: audiograbber 1.82.02
#
DISCID=a20ce10c
DTITLE=Red Beans and Rice - Can't Get Enough
DYEAR=1900
DGENRE=
TTITLE0=Things Ain't Like They Used To Was
TTITLE1=Can't Get Enough
TTITLE2=Big Automobile
TTITLE3=Blue Monday
TTITLE4=Lucky So Far
TTITLE5=Treat Me The Way You Want To
TTITLE6=Terrible Tube
TTITLE7=Too Much Pressure
TTITLE8=Put It Down
TTITLE9=Tell Me What's The Reason
TTITLE10=Hoochie Coochie Man
TTITLE11=House Of Blue Lights
EXTD=
EXTT0=
EXTT1=
EXTT2=
EXTT3=
EXTT4=
EXTT5=
EXTT6=
EXTT7=
EXTT8=
EXTT9=
EXTT10=
EXTT11=
PLAYORDER=
